<svg xmlns="http://www.w3.org/2000/svg" viewBox="0 0 192 192">
  <defs>
    <linearGradient id="bg" x1="0" y1="0" x2="0" y2="1"><stop offset="0" stop-color="#101526"/><stop offset="1" stop-color="#05070e"/></linearGradient>
    <radialGradient id="amb" cx="0.5" cy="0.4" r="0.62"><stop offset="0" stop-color="#a9781f" stop-opacity="0.45"/><stop offset="1" stop-color="#a9781f" stop-opacity="0"/></radialGradient>
    <linearGradient id="face" x1="0.2" y1="0" x2="0.5" y2="1">
      <stop offset="0" stop-color="#ffe9a6"/><stop offset="0.45" stop-color="#f3b840"/><stop offset="0.8" stop-color="#c1811f"/><stop offset="1" stop-color="#855512"/>
    </linearGradient>
    <linearGradient id="rim" x1="0.1" y1="0" x2="0.4" y2="1">
      <stop offset="0" stop-color="#fff7da"/><stop offset="0.5" stop-color="#e6b048"/><stop offset="1" stop-color="#7c4f12"/>
    </linearGradient>
    <linearGradient id="gloss" x1="0" y1="0" x2="0" y2="1"><stop offset="0" stop-color="#ffffff" stop-opacity="0.5"/><stop offset="0.5" stop-color="#ffffff" stop-opacity="0.06"/><stop offset="1" stop-color="#ffffff" stop-opacity="0"/></linearGradient>
    <radialGradient id="rainbow" cx="0.5" cy="0.5" r="0.5">
      <stop offset="0" stop-color="#ffffff" stop-opacity="1"/>
      <stop offset="0.15" stop-color="#fff39a" stop-opacity="0.95"/>
      <stop offset="0.33" stop-color="#7cf0a8" stop-opacity="0.85"/>
      <stop offset="0.5" stop-color="#5fd8f2" stop-opacity="0.82"/>
      <stop offset="0.68" stop-color="#7f8dff" stop-opacity="0.72"/>
      <stop offset="0.85" stop-color="#e479f2" stop-opacity="0.5"/>
      <stop offset="1" stop-color="#e479f2" stop-opacity="0"/>
    </radialGradient>
    <path id="shield" d="M96 36 L140 52 Q144 53.5 144 58 L144 100 Q144 134 96 161 Q48 134 48 100 L48 58 Q48 53.5 52 52 Z"/>
    <clipPath id="clip"><use href="#shield"/></clipPath>
  </defs>
  <rect width="192" height="192" fill="url(#bg)"/>
  <rect width="192" height="192" fill="url(#amb)"/>
  <use href="#shield" transform="translate(0 3)" fill="#0a0f1d" opacity="0.55"/>
  <use href="#shield" fill="url(#rim)"/>
  <path d="M96 42 L136 56.5 Q139 57.5 139 61 L139 100 Q139 130 96 154 Q53 130 53 100 L53 61 Q53 57.5 56 56.5 Z" fill="url(#face)"/>
  <g clip-path="url(#clip)" stroke="#fff3c4" stroke-width="0.6" opacity="0.10">
    <path d="M40 70 H152 M40 92 H152 M40 114 H152 M40 136 H152"/>
    <path d="M62 48 V160 M84 48 V160 M106 48 V160 M128 48 V160"/>
  </g>
  <path d="M96 42 L136 56.5 Q139 57.5 139 61 L139 86 Q118 94 96 94 Q74 94 53 86 L53 61 Q53 57.5 56 56.5 Z" fill="url(#gloss)"/>
  <g fill="none" stroke="#6e4612" stroke-width="4.6" stroke-linecap="round" opacity="0.45">
    <path d="M69 67 L96 99"/><path d="M123 67 L96 99"/><path d="M96 137 L96 99"/>
  </g>
  <g fill="none" stroke="#fff6df" stroke-width="3.3" stroke-linecap="round">
    <path d="M69 67 L96 99"/><path d="M123 67 L96 99"/><path d="M96 137 L96 99"/>
  </g>
  <g fill="#fff6df" stroke="#7c4f12" stroke-width="0.7">
    <circle cx="69" cy="67" r="4.2"/><circle cx="123" cy="67" r="4.2"/><circle cx="96" cy="137" r="4.2"/>
  </g>
  <circle cx="96" cy="100" r="30" fill="url(#rainbow)"/>
  <polygon points="96,89 105.5,94.5 105.5,105.5 96,111 86.5,105.5 86.5,94.5" fill="#ffffff" stroke="#f3b840" stroke-width="1.5" stroke-linejoin="round"/>
  <polygon points="96,94 100.8,96.75 100.8,102.25 96,105 91.2,102.25 91.2,96.75" fill="#ffe9a6"/>
</svg>
